<?xml version="1.0" standalone="no"?>
<!DOCTYPE svg PUBLIC "-//W3C//DTD SVG 20010904//EN"
 "http://www.w3.org/TR/2001/REC-SVG-20010904/DTD/svg10.dtd">
<svg version="1.0" xmlns="http://www.w3.org/2000/svg"
 width="1024.000000pt" height="1024.000000pt" viewBox="0 0 1024.000000 1024.000000"
 preserveAspectRatio="xMidYMid meet">

<g transform="translate(0.000000,1024.000000) scale(0.100000,-0.100000)"
fill="#000000" stroke="none">
<path d="M0 5120 l0 -5120 5120 0 5120 0 0 5120 0 5120 -5120 0 -5120 0 0
-5120z m5410 4590 c971 -64 1859 -419 2615 -1044 186 -154 503 -476 650 -661
349 -441 603 -903 774 -1412 102 -304 181 -671 211 -973 6 -63 12 -131 14
-150 2 -19 -11 -111 -29 -205 -18 -93 -46 -243 -61 -332 -16 -90 -31 -163 -34
-163 -3 0 -13 66 -23 148 -142 1160 -785 2281 -1722 2997 -49 38 -148 125
-220 195 -337 327 -716 558 -1174 714 -349 120 -695 179 -1141 196 -129 5
-282 17 -360 29 -594 89 -1306 93 -1885 10 -126 -18 -424 -73 -464 -86 -53
-17 229 145 419 240 333 168 604 271 936 355 487 124 1011 174 1494 142z m45
-720 c713 -47 1346 -275 1859 -669 76 -58 306 -260 306 -269 0 -2 -12 4 -27
14 -441 290 -1062 532 -1640 639 -784 145 -1644 95 -2361 -136 -149 -48 -428
-157 -526 -205 -37 -19 -71 -34 -75 -34 -3 0 30 24 74 53 283 189 613 343 960
447 299 89 579 137 965 163 106 8 326 6 465 -3z m-2289 -55 c8 -20 -13 -45
-32 -38 -14 5 -19 34 -7 46 11 12 33 7 39 -8z m-460 -326 c10 -17 -13 -36 -27
-22 -12 12 -4 33 11 33 5 0 12 -5 16 -11z m1711 -140 c104 -39 161 -181 114
-284 -87 -192 -373 -147 -398 63 -10 88 43 184 122 218 37 16 123 18 162 3z
m368 -79 c3 -5 1 -10 -4 -10 -6 0 -11 5 -11 10 0 6 2 10 4 10 3 0 8 -4 11 -10z
m775 -10 c0 -5 -4 -10 -10 -10 -5 0 -10 5 -10 10 0 6 5 10 10 10 6 0 10 -4 10
-10z m274 -39 c10 -16 -5 -41 -24 -41 -23 0 -34 16 -26 35 6 16 42 20 50 6z
m1113 -52 c97 -13 225 -56 300 -100 88 -52 187 -155 223 -230 45 -96 47 -94
-73 -97 -56 -1 -114 -5 -128 -8 -23 -4 -29 1 -50 43 -46 88 -152 144 -268 142
l-56 -2 63 -8 c74 -9 156 -45 194 -83 31 -32 68 -103 68 -131 0 -18 1 -18 16
3 14 20 23 22 102 22 250 -1 429 -101 530 -298 40 -76 44 -81 59 -66 32 32
177 -4 271 -66 158 -106 271 -290 301 -490 10 -66 12 -140 4 -140 -2 0 -24 15
-50 34 -57 40 -117 71 -158 80 -16 4 -39 9 -50 12 -11 3 12 -11 50 -30 141
-71 241 -174 311 -321 48 -101 68 -185 67 -290 0 -211 -93 -384 -270 -503 -34
-23 -74 -47 -89 -52 -23 -9 -26 -14 -20 -43 13 -61 19 -135 12 -169 -3 -19
-22 -61 -41 -94 l-35 -59 39 42 c21 24 44 62 51 87 12 44 10 147 -5 193 -6 19
0 25 45 48 31 15 56 23 61 18 20 -20 51 -133 56 -203 7 -93 -19 -206 -70 -307
-31 -62 -37 -68 -63 -65 -16 1 -75 3 -131 5 -96 2 -102 3 -122 28 -27 35 -80
59 -128 58 -37 -1 -37 -1 -8 -8 67 -17 125 -62 140 -111 5 -16 11 -16 47 -7
62 16 177 -5 268 -49 94 -46 218 -168 268 -262 151 -285 126 -594 -62 -770
-34 -31 -94 -74 -133 -95 -88 -46 -112 -75 -41 -48 64 23 76 22 82 -7 4 -15 2
-61 -4 -102 -15 -108 -55 -183 -148 -276 -42 -43 -63 -68 -47 -57 45 32 122
111 157 161 44 64 68 149 68 242 0 74 1 79 28 95 15 10 51 38 79 63 l53 44 39
-31 c22 -18 49 -47 61 -66 12 -19 23 -35 25 -35 1 0 20 16 41 35 47 43 124 81
195 96 76 16 223 7 289 -20 56 -22 166 -96 174 -118 4 -10 -27 -137 -49 -199
-2 -7 -26 10 -53 36 -70 67 -146 101 -241 105 l-76 4 60 -9 c114 -18 264 -117
281 -185 16 -64 -170 -501 -339 -795 -86 -151 -293 -459 -382 -570 -109 -136
-96 -127 -144 -94 -22 16 -41 32 -41 36 0 7 43 43 63 52 9 4 9 8 1 11 -6 3
-33 20 -60 37 l-48 30 37 19 c67 35 58 99 -16 99 -37 0 -63 14 -109 57 l-37
36 -11 -44 c-16 -62 -34 -86 -83 -110 l-42 -22 35 -15 35 -14 -30 -24 c-35
-28 -86 -40 -111 -26 -15 9 -14 11 9 27 32 21 28 31 -15 39 -18 3 -46 16 -63
27 -17 12 -22 18 -10 14 34 -11 105 -16 105 -6 0 5 -20 12 -44 15 -44 7 -96
38 -96 58 0 7 4 7 13 0 10 -9 117 -33 117 -27 0 1 -18 14 -41 29 -44 29 -47
53 -8 48 28 -3 79 13 79 25 0 5 -20 19 -45 32 -63 33 -111 90 -154 182 l-37
79 -24 -57 c-27 -66 -77 -125 -120 -143 -35 -15 -40 -40 -7 -41 13 -1 4 -7
-26 -16 -26 -8 -45 -18 -42 -24 11 -17 65 -9 115 16 63 32 65 31 43 -6 -24
-40 -115 -101 -187 -123 -42 -14 -56 -22 -54 -35 3 -13 17 -16 82 -15 l78 2
-43 -39 c-38 -32 -41 -38 -23 -39 12 0 46 16 75 35 76 52 79 52 30 6 -52 -50
-76 -63 -159 -86 -63 -18 -77 -37 -31 -43 14 -2 55 8 92 21 57 21 65 22 57 7
-16 -29 -89 -90 -109 -90 -11 0 -23 -5 -27 -11 -10 -16 -119 -2 -165 21 -20
11 -40 27 -43 37 -6 14 -5 15 5 6 9 -9 18 -9 31 -2 14 8 30 6 59 -5 22 -9 42
-16 45 -16 3 0 -26 35 -65 77 -39 42 -71 80 -71 84 0 5 18 13 40 19 22 6 40
15 40 19 0 5 -20 21 -45 35 -27 17 -55 44 -71 72 -20 33 -29 42 -35 32 -5 -7
-9 132 -9 312 l0 325 133 3 c72 2 135 7 138 10 4 4 9 25 12 47 2 22 10 54 18
72 7 18 11 34 8 37 -2 2 -51 10 -109 16 -147 16 -332 54 -463 96 -201 64 -285
116 -242 148 20 14 34 138 18 158 -6 8 -7 48 -4 98 l6 84 40 8 c77 15 234 60
250 72 14 10 -12 52 -194 316 -115 168 -259 377 -318 465 -60 88 -186 273
-281 411 l-172 252 0 116 c0 71 4 116 10 116 15 0 11 83 -5 104 -21 27 -20
132 0 140 10 4 15 20 15 50 l0 44 -67 6 c-191 18 -180 19 -303 -27 l-115 -43
2 -39 c2 -22 9 -45 17 -51 12 -9 13 -27 3 -118 -8 -82 -8 -112 1 -127 7 -11
12 -58 12 -114 0 -80 -3 -96 -18 -104 -43 -23 -1741 -581 -1768 -581 -35 0
-28 151 12 239 14 31 18 49 10 42 -33 -27 -60 -115 -64 -209 l-4 -93 -26 3
c-31 4 -40 27 -41 113 -4 225 168 429 392 468 110 18 215 -12 306 -89 17 -14
31 -29 31 -33 0 -5 -18 -16 -40 -26 -39 -18 -120 -74 -90 -62 8 3 42 17 75 30
127 53 245 41 303 -28 l28 -35 25 37 c27 42 73 72 138 89 39 11 42 13 16 13
-52 1 -105 -19 -145 -55 l-39 -36 -33 25 c-45 33 -91 47 -159 47 l-57 0 -23
48 c-46 93 -35 254 23 335 l20 28 29 -62 c36 -75 76 -127 132 -171 l42 -32
-46 50 c-86 93 -133 202 -145 335 -26 288 180 570 471 644 100 25 242 17 328
-20 12 -5 17 -3 17 9 0 8 14 31 30 50 29 33 63 50 120 59 14 2 3 5 -25 6 -58
1 -107 -24 -132 -67 l-16 -28 -51 18 c-28 9 -61 17 -73 18 -20 0 -23 5 -23 43
0 60 24 134 61 191 33 49 113 110 161 121 24 6 27 12 33 68 19 167 121 314
272 395 155 82 348 81 538 -2 89 -40 46 -3 -57 48 -77 38 -85 45 -110 95 -43
85 -35 191 20 255 17 20 17 20 -7 5 -75 -47 -83 -215 -14 -291 23 -26 13 -29
-48 -18 -30 6 -74 10 -99 8 l-45 -2 -12 54 c-26 125 -13 257 37 365 132 291
491 464 857 414z m-4625 -39 c63 -32 103 -75 133 -143 24 -52 27 -69 23 -131
-5 -79 -22 -118 -75 -177 -47 -52 -103 -80 -173 -86 -121 -11 -236 53 -286
162 -33 70 -33 170 0 240 29 63 103 130 165 150 62 20 159 13 213 -15z m1523
-89 c0 -8 -8 -19 -17 -25 -22 -13 -44 5 -34 29 7 20 51 16 51 -4z m-524 -10
c20 -16 22 -23 14 -47 -9 -24 -16 -29 -45 -29 -29 0 -36 5 -45 29 -8 24 -6 31
14 47 13 10 27 19 31 19 4 0 18 -9 31 -19z m2477 -54 c-2 -17 -10 -22 -33 -22
-35 0 -47 31 -20 51 25 18 57 0 53 -29z m-973 -47 c3 -5 1 -10 -4 -10 -6 0
-11 5 -11 10 0 6 2 10 4 10 3 0 8 -4 11 -10z m754 -143 c8 -10 7 -19 -4 -33
-13 -18 -15 -18 -31 -2 -14 14 -15 20 -4 32 15 19 24 20 39 3z m-1853 -73 c36
-55 -26 -116 -81 -80 -31 20 -35 79 -7 95 32 19 70 13 88 -15z m344 -20 c0
-19 -28 -30 -42 -16 -8 8 -8 15 1 26 14 17 41 10 41 -10z m-1082 -6 c-3 -7
-11 -13 -18 -13 -7 0 -15 6 -17 13 -3 7 4 12 17 12 13 0 20 -5 18 -12z m352
-78 c0 -5 -4 -10 -10 -10 -5 0 -10 5 -10 10 0 6 5 10 10 10 6 0 10 -4 10 -10z
m1555 -20 c0 -7 -6 -15 -12 -17 -8 -3 -13 4 -13 17 0 13 5 20 13 18 6 -3 12
-11 12 -18z m-3155 -130 c0 -5 -7 -10 -16 -10 -8 0 -12 5 -9 10 3 6 10 10 16
10 5 0 9 -4 9 -10z m2285 -9 c433 -52 815 -163 1190 -346 146 -72 375 -203
375 -216 0 -3 -17 -11 -38 -17 -67 -20 -215 -98 -316 -166 l-99 -66 -96 0
c-283 0 -628 -67 -936 -181 -120 -44 -398 -178 -483 -231 l-53 -34 38 -25 c20
-13 51 -43 67 -67 42 -59 49 -164 16 -239 -75 -175 -311 -217 -463 -83 -25 22
-55 60 -67 85 -26 53 -20 55 -140 -42 -112 -89 -335 -312 -439 -438 -101 -122
-227 -297 -306 -425 -49 -80 -185 -339 -185 -353 0 -2 -9 -26 -21 -51 -17 -39
-23 -45 -35 -35 -17 14 -19 -2 -1 -21 6 -8 -6 1 -28 20 -83 70 -129 149 -164
283 -29 110 -36 116 -38 31 -6 -185 -81 -336 -212 -425 -28 -19 -51 -39 -51
-46 0 -19 63 -26 121 -14 28 6 54 9 56 7 8 -8 -18 -47 -27 -41 -6 3 -7 0 -5
-8 13 -32 -167 -189 -196 -172 -8 6 -10 4 -4 -5 6 -10 4 -12 -9 -7 -9 4 -15 3
-12 -2 3 -4 -6 -13 -19 -19 -49 -23 -24 -42 54 -42 52 0 144 28 198 60 40 24
43 24 43 7 0 -24 -144 -152 -160 -142 -5 3 -12 0 -16 -6 -5 -8 -3 -9 6 -4 9 6
11 4 6 -4 -5 -7 -14 -10 -22 -7 -8 3 -13 0 -11 -6 1 -6 -4 -13 -12 -16 -9 -3
-11 0 -6 8 5 9 4 11 -4 6 -6 -4 -9 -11 -7 -15 3 -4 -29 -27 -70 -50 -52 -30
-74 -48 -72 -59 4 -21 58 -28 100 -13 41 15 44 10 11 -20 -17 -15 -22 -17 -13
-5 13 16 13 19 1 15 -8 -3 -26 -23 -39 -45 l-25 -39 29 25 c16 15 22 17 14 6
-8 -10 -50 -43 -92 -73 -87 -61 -138 -116 -174 -185 -31 -61 -54 -150 -54
-210 0 -54 18 -149 31 -163 16 -17 9 -20 -34 -17 -25 2 -60 -3 -81 -12 -21 -9
-42 -16 -46 -16 -4 0 -24 36 -44 81 -205 447 -342 996 -378 1512 l-12 167 33
143 c209 901 775 1674 1549 2111 350 198 777 325 1229 366 122 11 528 5 648
-9z m-2665 -316 c0 -8 -9 -15 -20 -15 -20 0 -26 11 -13 23 12 13 33 7 33 -8z
m3290 -869 c0 -8 -5 -18 -11 -22 -14 -8 -33 11 -25 25 10 16 36 13 36 -3z
m-460 -20 c0 -8 -4 -17 -9 -21 -12 -7 -24 12 -16 25 9 15 25 12 25 -4z m309
-82 c27 -35 26 -59 -4 -89 -63 -63 -160 18 -105 88 29 37 80 37 109 1z m1558
-246 c-3 -8 -6 -5 -6 6 -1 11 2 17 5 13 3 -3 4 -12 1 -19z m-1923 -30 c8 -13
8 -23 0 -35 -28 -45 -89 -9 -64 38 13 24 48 22 64 -3z m274 -59 c-2 -6 -8 -10
-13 -10 -5 0 -11 4 -13 10 -2 6 4 11 13 11 9 0 15 -5 13 -11z m4542 -29 c15
-29 3 -59 -26 -66 -30 -8 -54 11 -54 40 0 46 59 64 80 26z m-3030 -134 c0 -2
-7 -7 -16 -10 -8 -3 -12 -2 -9 4 6 10 25 14 25 6z m197 -12 c-3 -3 -12 -4 -19
-1 -8 3 -5 6 6 6 11 1 17 -2 13 -5z m-130 -20 c-3 -3 -12 -4 -19 -1 -8 3 -5 6
6 6 11 1 17 -2 13 -5z m-110 -30 c-3 -3 -12 -4 -19 -1 -8 3 -5 6 6 6 11 1 17
-2 13 -5z m-2719 -147 c2 -12 -3 -17 -17 -17 -12 0 -21 6 -21 13 0 31 32 34
38 4z m300 -6 c-2 -9 -11 -17 -21 -19 -21 -4 -35 27 -17 38 19 12 42 0 38 -19z
m2527 -1 c-27 -12 -43 -12 -25 0 8 5 22 9 30 9 10 0 8 -3 -5 -9z m2797 -35 c0
-5 -5 -11 -11 -13 -6 -2 -11 4 -11 13 0 9 5 15 11 13 6 -2 11 -8 11 -13z
m-2622 2 c0 -2 -15 -16 -32 -33 l-33 -29 29 33 c28 30 36 37 36 29z m-2330
-22 c0 -8 -7 -15 -15 -15 -8 0 -15 7 -15 15 0 8 7 15 15 15 8 0 15 -7 15 -15z
m5195 -82 c-7 -76 -9 -79 -54 -124 -48 -49 -106 -73 -148 -63 -22 6 -21 8 17
26 56 28 122 106 156 182 15 36 30 63 32 61 2 -2 1 -39 -3 -82z m-2925 33 c0
-2 -8 -10 -17 -17 -16 -13 -17 -12 -4 4 13 16 21 21 21 13z m2993 -178 c1 -9
4 -16 8 -15 3 1 19 -14 35 -33 16 -19 33 -38 39 -42 5 -4 19 -13 30 -22 20
-15 20 -15 -2 -10 -31 8 -104 74 -97 86 4 7 2 8 -5 4 -17 -11 -61 90 -60 139
l0 40 25 -65 c14 -36 26 -73 27 -82z m-5573 104 c46 -37 -9 -106 -59 -75 -26
16 -26 59 1 77 28 20 31 20 58 -2z m-619 -80 c28 -23 30 -73 4 -102 -27 -30
-78 -27 -105 7 -52 66 35 148 101 95z m2659 14 c0 -6 -93 -37 -97 -32 -2 2 15
11 39 19 47 17 58 19 58 13z m3205 -26 c-5 -8 -11 -8 -17 -2 -6 6 -7 16 -3 22
5 8 11 8 17 2 6 -6 7 -16 3 -22z m-110 -60 c0 -18 -6 -26 -23 -28 -24 -4 -38
18 -28 44 3 9 15 14 28 12 17 -2 23 -10 23 -28z m355 -78 c0 -53 -4 -81 -10
-77 -5 3 -10 29 -10 58 l0 52 -30 -37 c-36 -44 -83 -73 -130 -83 l-35 -7 45
29 c47 31 88 73 130 135 32 48 40 35 40 -70z m-3660 89 c-8 -5 -152 -55 -320
-111 -168 -56 -353 -120 -411 -141 -59 -21 -109 -35 -113 -32 -3 3 -12 -2 -21
-11 -9 -9 -22 -16 -29 -16 -7 0 -95 -27 -196 -60 -101 -34 -190 -58 -197 -55
-8 2 -12 1 -9 -3 3 -5 -27 -19 -67 -31 -40 -13 -88 -32 -108 -42 -20 -10 -39
-16 -43 -14 -3 3 -4 2 -1 -2 3 -3 0 -12 -6 -20 -9 -10 -5 -13 22 -13 l34 0
-42 -19 c-37 -17 -90 -72 -87 -89 1 -4 -5 -16 -12 -27 -20 -29 -17 -36 11 -25
43 16 27 2 -22 -21 -46 -21 -47 -22 -23 -29 21 -7 18 -8 -17 -9 -24 -1 -43 2
-43 6 0 11 81 133 143 215 65 86 47 77 292 147 77 22 166 49 198 60 32 11 65
17 74 14 11 -5 14 -3 8 6 -6 10 -2 11 15 6 14 -4 20 -3 16 3 -7 12 40 25 57
16 7 -4 9 -4 5 1 -8 9 12 16 397 139 127 41 289 95 360 120 126 43 166 54 135
37z m883 -8 c-7 -2 -19 -2 -25 0 -7 3 -2 5 12 5 14 0 19 -2 13 -5z m-2465 -25
c-6 -18 -28 -21 -28 -4 0 9 7 16 16 16 9 0 14 -5 12 -12z m2475 -5 c-7 -2 -19
-2 -25 0 -7 3 -2 5 12 5 14 0 19 -2 13 -5z m2874 -51 c42 -73 70 -107 113
-137 50 -35 44 -43 -14 -21 -52 20 -109 79 -124 127 -31 101 -22 112 25 31z
m-5457 -97 c0 -8 -7 -15 -15 -15 -8 0 -15 7 -15 15 0 8 7 15 15 15 8 0 15 -7
15 -15z m-210 -65 c0 -5 -4 -10 -10 -10 -5 0 -10 5 -10 10 0 6 5 10 10 10 6 0
10 -4 10 -10z m5731 -56 c14 -17 9 -17 -25 -4 -14 5 -26 14 -26 19 0 13 37 2
51 -15z m-317 -7 c-7 -18 -74 -61 -74 -48 0 11 71 74 76 68 3 -2 2 -11 -2 -20z
m136 -4 c0 -16 -4 -34 -9 -42 -12 -19 -25 21 -16 49 9 29 25 24 25 -7z m-5960
-13 c25 -10 53 -21 63 -25 12 -5 17 -3 17 9 0 23 67 21 108 -4 41 -25 74 -77
69 -112 -3 -26 -2 -26 47 -25 30 0 64 -6 82 -16 36 -19 64 -70 64 -118 0 -33
0 -33 16 -11 12 17 25 22 60 22 25 0 54 -5 64 -10 15 -8 18 -7 15 2 -15 39 68
118 124 118 l24 0 -27 -32 c-49 -61 -146 -211 -146 -225 0 -12 -21 -14 -115
-12 -90 2 -119 -1 -129 -12 -15 -15 -96 -160 -169 -304 l-47 -90 40 -17 40
-17 0 -91 0 -92 -47 -61 c-80 -105 -209 -260 -247 -297 -20 -19 -103 -84 -183
-145 -81 -60 -146 -114 -145 -119 0 -5 27 -18 59 -28 56 -19 71 -19 170 -2
l32 6 3 -68 c3 -63 5 -69 28 -74 24 -6 25 -10 23 -66 -2 -57 -7 -126 -17 -246
-7 -83 -13 -96 -58 -119 -36 -18 -39 -23 -33 -47 4 -15 9 -44 12 -66 3 -24 11
-40 22 -43 16 -4 16 -10 2 -80 -16 -84 -10 -106 31 -111 17 -2 28 -11 32 -25
10 -36 7 -44 -15 -50 -17 -5 -20 -11 -15 -30 7 -28 -8 -44 -72 -76 -24 -12
-45 -28 -48 -36 -9 -21 -40 -28 -63 -13 -12 7 -21 16 -21 21 0 4 4 6 10 2 12
-8 50 16 50 32 0 7 -20 18 -44 24 -24 6 -55 22 -68 37 -21 23 -21 25 -3 18 11
-4 36 -10 55 -13 l35 -5 -34 32 c-33 31 -34 33 -16 46 10 8 22 14 27 14 19 0
6 18 -17 24 -41 10 -100 72 -130 135 l-29 60 -33 -70 c-27 -56 -41 -73 -73
-89 -22 -11 -40 -24 -40 -29 0 -17 30 -33 51 -28 16 4 18 3 9 -8 -6 -7 -30
-18 -53 -24 -61 -16 -77 -28 -46 -35 13 -3 40 -7 58 -8 l35 -3 -63 -39 c-34
-21 -74 -42 -89 -46 -26 -7 -26 -7 11 -15 42 -8 44 -23 5 -45 -22 -12 -29 -12
-42 -1 -15 12 -15 15 0 25 13 10 6 16 -45 41 -34 16 -61 32 -61 37 0 8 47 -9
64 -23 5 -4 16 -4 25 1 9 4 27 12 41 18 l25 10 -30 7 c-78 17 -117 38 -146 78
-30 42 -36 57 -20 57 10 0 22 -11 58 -54 13 -14 28 -26 34 -26 7 0 5 8 -5 19
-18 20 -15 41 6 41 14 0 68 39 68 50 0 5 -9 12 -21 15 -35 11 -99 76 -124 124
-12 25 -30 79 -39 120 -21 91 -37 123 -76 151 -35 25 -90 43 -90 29 0 -5 9 -9
19 -9 25 0 77 -44 96 -80 8 -15 17 -50 21 -77 9 -69 -25 -145 -90 -197 -25
-21 -46 -42 -46 -47 0 -15 59 -10 91 7 30 15 30 15 18 -7 -16 -31 -45 -55
-101 -84 -54 -28 -61 -45 -20 -45 15 0 34 -4 42 -10 12 -7 9 -13 -15 -35 -17
-14 -51 -35 -77 -47 -27 -11 -48 -24 -48 -28 0 -15 59 -32 92 -26 l33 6 -32
-15 c-18 -8 -56 -17 -85 -20 l-53 -6 -102 123 c-208 250 -355 456 -495 693
-84 143 -158 280 -158 295 0 22 72 43 136 37 l61 -4 -17 46 c-41 107 -34 223
20 338 76 163 274 266 450 235 128 -23 256 -108 333 -222 17 -25 31 -47 33
-48 1 -2 16 -1 33 3 l30 6 -25 36 c-42 63 -31 133 32 203 60 67 122 93 232 98
50 2 92 8 92 13 0 15 77 49 110 49 17 0 47 -7 67 -15 55 -23 53 -8 -2 16 -52
23 -103 21 -156 -7 -22 -11 -34 -12 -50 -4 -32 18 -59 71 -60 120 -1 43 -1 44
-11 16 -15 -42 5 -100 47 -133 19 -16 35 -30 35 -33 0 -3 -43 -6 -95 -7 -91
-1 -94 -1 -84 18 5 11 26 28 46 37 33 16 34 17 12 22 -36 9 -69 65 -69 117 0
48 23 113 39 113 6 0 11 21 11 48 0 68 34 129 94 170 40 26 58 32 103 32 49 0
54 2 48 18 -25 62 -7 175 40 256 36 61 125 143 188 171 99 46 213 51 307 15z
m5894 -2 c-12 -41 -54 -76 -54 -46 0 11 48 68 58 68 2 0 0 -10 -4 -22z m136
-47 c-1 -12 -5 -11 -20 8 -11 13 -20 31 -20 40 1 12 5 11 20 -8 11 -13 20 -31
20 -40z m63 -4 c42 -61 45 -72 17 -57 -11 6 -17 16 -14 22 4 6 3 8 -3 5 -6 -4
-15 -1 -21 6 -10 13 -27 77 -19 77 2 0 20 -24 40 -53z m-3143 18 c0 -2 -10 -9
-22 -15 -22 -11 -22 -10 -4 4 21 17 26 19 26 11z m3253 -53 c10 -11 14 -23 9
-26 -10 -6 -26 6 -62 48 l-25 29 30 -16 c17 -8 38 -24 48 -35z m-3223 -267 l0
-275 -160 0 -160 0 0 48 c0 135 44 259 120 345 41 46 176 156 193 157 4 0 7
-124 7 -275z m313 228 c85 -59 116 -87 157 -142 55 -74 81 -149 89 -263 l6
-97 -157 -3 -158 -3 0 273 c0 149 2 272 5 272 3 0 29 -16 58 -37z m-463 14 c0
-2 -15 -16 -32 -33 l-33 -29 29 33 c28 30 36 37 36 29z m643 -14 c-7 -2 -19
-2 -25 0 -7 3 -2 5 12 5 14 0 19 -2 13 -5z m-4560 -146 c26 -26 47 -50 47 -53
0 -13 -79 30 -102 56 -16 17 -28 26 -28 20 0 -23 40 -114 65 -146 28 -37 21
-43 -24 -19 -51 26 -82 146 -64 248 l5 28 27 -43 c15 -24 49 -65 74 -91z
m6997 116 c0 -14 -14 -28 -50 -53 -29 -20 -33 -21 -20 -5 40 55 70 80 70 58z
m65 -23 c8 -35 0 -51 -20 -43 -16 5 -19 30 -9 57 10 25 22 19 29 -14z m339 7
c44 -25 58 -47 28 -47 -22 0 -84 39 -90 58 -6 18 18 14 62 -11z m-4961 -4
c-29 -2 -77 -2 -105 0 -29 2 -6 3 52 3 58 0 81 -1 53 -3z m4410 -10 c-5 -12
-3 -14 7 -8 9 5 11 4 6 -3 -11 -19 -26 -14 -26 8 0 11 4 20 10 20 5 0 6 -7 3
-17z m147 -40 c0 -17 -16 -30 -42 -35 -16 -3 -28 -2 -28 1 0 7 51 40 63 41 4
0 7 -3 7 -7z m-7122 -38 c1 -26 -6 -44 -29 -69 -36 -42 -121 -86 -163 -86 -29
1 -27 3 25 30 51 26 159 129 159 151 0 5 2 9 3 9 2 0 4 -16 5 -35z m7438 4
c51 -29 71 -59 40 -59 -18 0 -98 60 -104 78 -6 18 5 15 64 -19z m-116 11 c0
-5 -5 -10 -11 -10 -5 0 -7 5 -4 10 3 6 8 10 11 10 2 0 4 -4 4 -10z m-4857
-137 c26 -56 47 -106 47 -111 0 -5 -39 -17 -87 -27 -48 -9 -105 -24 -126 -32
-21 -9 -40 -13 -43 -11 -7 8 19 73 80 202 65 139 56 140 129 -21z m4717 128
c0 -6 -4 -13 -10 -16 -5 -3 -10 1 -10 9 0 9 5 16 10 16 6 0 10 -4 10 -9z m-95
-34 c-20 -30 -65 -53 -65 -33 0 13 55 55 73 56 4 0 1 -11 -8 -23z m-5121 -22
c-25 -19 -40 -19 -24 0 7 8 20 15 28 15 13 0 12 -3 -4 -15z m-1844 -15 c13 -8
12 -10 -3 -10 -17 0 -17 -1 -1 -29 10 -17 21 -28 25 -26 9 6 31 -20 23 -27 -3
-3 0 -9 7 -14 8 -4 10 -3 5 4 -4 7 -2 12 5 12 8 0 4 9 -8 23 -11 12 -18 28
-16 35 3 6 -1 12 -8 12 -7 0 -9 3 -6 6 3 4 26 -14 50 -39 25 -25 64 -56 88
-69 l44 -23 -43 -3 c-63 -5 -125 30 -167 94 -19 29 -35 55 -35 58 0 9 23 7 40
-4z m-91 -67 c1 -13 -2 -23 -6 -23 -5 0 -9 19 -9 43 -1 30 1 36 6 22 5 -11 9
-30 9 -42z m7324 36 c37 -10 51 -29 22 -29 -19 0 -85 27 -85 34 0 9 21 7 63
-5z m-243 -76 c0 -10 -42 -53 -52 -53 -4 0 -8 7 -8 15 0 9 6 12 18 8 9 -3 14
-3 10 2 -4 4 -3 14 3 22 12 14 29 18 29 6z m-3277 -10 c-7 -2 -19 -2 -25 0 -7
3 -2 5 12 5 14 0 19 -2 13 -5z m1080 -10 c-7 -2 -19 -2 -25 0 -7 3 -2 5 12 5
14 0 19 -2 13 -5z m2666 -14 c31 -13 41 -23 34 -30 -13 -13 -71 9 -92 34 -19
24 1 22 58 -4z m-389 -8 c13 -26 13 -58 -1 -67 -16 -9 -29 15 -29 54 0 36 14
42 30 13z m51 -3 c11 -21 11 -22 -4 -9 -10 7 -17 17 -17 22 0 15 9 10 21 -13z
m214 12 c8 -13 -5 -13 -25 0 -13 8 -13 10 2 10 9 0 20 -4 23 -10z m-418 -22
c-3 -8 -6 -5 -6 6 -1 11 2 17 5 13 3 -3 4 -12 1 -19z m373 -36 l25 -17 -23 -3
c-25 -4 -72 22 -72 39 0 13 36 3 70 -19z m-7381 6 c-1 -16 -17 -56 -18 -44 -1
5 -8 3 -16 -4 -14 -11 -14 -10 -5 15 6 15 13 32 16 36 8 13 24 11 23 -3z
m3461 8 c0 -2 -8 -10 -17 -17 -16 -13 -17 -12 -4 4 13 16 21 21 21 13z m-3376
-62 c21 -31 33 -53 26 -49 -6 4 -23 25 -37 48 l-27 42 -13 -60 -12 -60 5 59
c4 53 10 76 18 76 2 0 20 -25 40 -56z m62 19 c-7 -8 13 -33 26 -33 5 0 6 5 3
11 -4 6 2 5 14 -3 25 -15 11 -23 -24 -14 -14 4 -32 20 -40 37 -16 30 -16 30 5
19 12 -6 19 -14 16 -17z m2334 -63 c0 -60 -3 -70 -17 -70 -10 0 -28 -3 -41 -6
-23 -6 -23 -5 -20 62 3 73 2 72 71 83 4 0 7 -30 7 -69z m-2570 50 c0 -5 -19
-24 -42 -41 -53 -38 -67 -19 -17 23 34 28 59 36 59 18z m1667 -78 c51 -122 50
-112 7 -112 -22 -1 -59 -5 -84 -10 -25 -4 -46 -7 -48 -5 -5 4 82 205 88 205 3
0 19 -35 37 -78z m690 31 c-3 -10 -5 -2 -5 17 0 19 2 27 5 18 2 -10 2 -26 0
-35z m113 -23 c0 -67 -1 -70 -24 -70 -13 0 -31 -3 -40 -6 -14 -5 -16 4 -16 64
0 65 2 71 23 75 58 11 57 12 57 -63z m4948 26 c35 -18 86 -72 59 -63 -10 4
-22 7 -27 7 -12 0 -70 50 -70 61 0 12 6 11 38 -5z m-66 -33 c42 -41 47 -53 20
-53 -22 0 -57 36 -67 68 -9 31 4 27 47 -15z m-189 11 c-8 -21 -51 -36 -70 -25
-18 9 -8 18 35 31 39 12 42 12 35 -6z m471 -17 c40 -23 65 -51 54 -62 -9 -9
-80 29 -107 59 -23 24 -23 26 -5 26 10 0 37 -10 58 -23z m-3761 6 c-7 -2 -19
-2 -25 0 -7 3 -2 5 12 5 14 0 19 -2 13 -5z m-4043 -22 c0 -9 -61 -41 -77 -41
-4 0 10 11 32 24 49 29 45 28 45 17z m434 3 c9 -3 13 -11 9 -17 -3 -6 -1 -7 5
-3 14 8 52 -14 52 -32 0 -17 -75 21 -83 43 -7 17 -5 18 17 9z m3974 -19 c14
-5 15 -78 5 -252 l-6 -113 -107 0 c-59 0 -128 3 -154 6 l-46 7 0 181 0 181
147 -3 c82 -1 154 -5 161 -7z m-4185 -43 c-23 -30 -43 -40 -43 -19 0 17 34 49
43 40 4 -3 7 2 8 13 0 12 3 14 6 5 3 -7 -3 -25 -14 -39z m4767 -137 l0 -185
-160 0 -160 0 0 185 0 185 160 0 160 0 0 -185z m2284 169 c24 -9 9 -24 -25
-24 -29 0 -40 14 -16 23 18 8 23 8 41 1z m171 -15 c5 -5 -6 -9 -28 -9 -35 0
-45 8 -30 23 8 8 43 -1 58 -14z m295 -11 c0 -12 -14 -10 -28 4 -19 19 -14 29
8 16 11 -7 20 -16 20 -20z m-7340 -33 c12 -20 19 -39 15 -43 -9 -9 -75 64 -75
83 0 25 34 1 60 -40z m7281 15 c10 -6 19 -18 19 -26 0 -13 -6 -15 -27 -9 -42
10 -73 33 -67 49 6 15 28 11 75 -14z m-7400 -53 c-13 -13 -15 31 -3 60 5 14 8
10 10 -16 2 -18 -1 -38 -7 -44z m2459 -22 c0 -84 -2 -95 -17 -95 -10 0 -28 -3
-40 -6 -23 -6 -23 -5 -23 89 l0 96 28 4 c15 2 33 5 40 6 9 1 12 -24 12 -94z
m-2262 53 c51 -34 62 -46 62 -66 0 -19 -78 26 -101 59 -35 49 -25 51 39 7z
m2162 -67 c0 -50 -3 -92 -8 -95 -4 -2 -23 -7 -42 -11 l-35 -6 3 95 c4 101 4
102 60 105 21 1 22 -2 22 -88z m2397 57 c-3 -8 -6 -5 -6 6 -1 11 2 17 5 13 3
-3 4 -12 1 -19z m-1517 8 c0 -2 -8 -10 -17 -17 -16 -13 -17 -12 -4 4 13 16 21
21 21 13z m3800 -11 c0 -10 -10 -15 -29 -15 -32 0 -50 15 -29 23 27 11 58 7
58 -8z m-7180 -8 c0 -8 -11 -19 -25 -25 -36 -17 -50 -15 -35 3 7 9 19 14 26
11 8 -3 13 -2 13 2 -2 15 1 22 11 22 6 0 10 -6 10 -13z m7066 -12 c18 -14 17
-14 -13 -15 -31 0 -49 11 -36 24 10 10 28 7 49 -9z m-5324 -71 c-4 -60 -5 -62
-33 -66 l-29 -5 0 68 c0 66 1 68 28 71 15 2 29 1 33 -2 3 -3 3 -33 1 -66z
m-82 -8 c0 -58 -2 -64 -22 -70 -54 -14 -58 -10 -58 57 0 35 3 67 7 70 3 4 21
7 40 7 l33 0 0 -64z m-1678 -16 c-18 -17 -40 -30 -50 -30 -13 1 -9 8 16 30 18
17 40 30 50 30 13 -1 9 -8 -16 -30z m-127 10 c-8 -13 -100 -60 -117 -60 -7 0
10 12 37 26 28 14 54 30 60 35 12 12 28 12 20 -1z m285 -7 c-1 -30 -35 -67
-55 -59 -16 6 -14 11 15 41 39 40 40 41 40 18z m87 -5 c25 -27 32 -52 18 -58
-10 -3 -55 55 -55 71 0 16 16 10 37 -13z m7589 7 c15 -11 16 -14 3 -15 -8 0
-24 7 -35 15 -15 11 -16 14 -3 15 8 0 24 -7 35 -15z m-4556 -19 c0 -2 -8 -10
-17 -17 -16 -13 -17 -12 -4 4 13 16 21 21 21 13z m-2915 -46 c3 -5 -2 -10 -11
-10 -19 0 -54 27 -54 42 0 10 56 -17 65 -32z m2875 -4 c0 -2 -8 -10 -17 -17
-16 -13 -17 -12 -4 4 13 16 21 21 21 13z m-3230 -20 c0 -16 -72 -61 -114 -72
-51 -13 -25 19 44 53 76 38 70 36 70 19z m188 -35 c2 -31 0 -42 -9 -39 -16 5
-30 54 -22 74 10 28 28 8 31 -35z m1564 -93 c-3 -31 -8 -37 -33 -40 l-29 -5 0
88 0 88 28 3 c26 3 27 1 32 -47 3 -27 3 -66 2 -87z m-81 115 c6 -64 2 -163 -7
-163 -6 0 -26 -3 -43 -6 l-31 -6 0 91 0 91 40 0 c22 0 40 -3 41 -7z m756 1
c-3 -3 -12 -4 -19 -1 -8 3 -5 6 6 6 11 1 17 -2 13 -5z m763 -18 c0 -2 -8 -10
-17 -17 -16 -13 -17 -12 -4 4 13 16 21 21 21 13z m-3080 -26 c0 -18 -40 -50
-62 -50 -21 1 -20 3 12 30 36 31 50 37 50 20z m4197 -32 c-3 -8 -6 -5 -6 6 -1
11 2 17 5 13 3 -3 4 -12 1 -19z m-3957 -18 c0 -13 -37 -13 -45 0 -3 6 -3 15 0
20 7 12 45 -5 45 -20z m2800 27 c0 -2 -10 -12 -22 -23 l-23 -19 19 23 c18 21
26 27 26 19z m277 -53 c-3 -3 -12 -4 -19 -1 -8 3 -5 6 6 6 11 1 17 -2 13 -5z
m-3168 -20 c2 -2 2 -6 -1 -9 -9 -9 -58 6 -58 17 0 9 49 3 59 -8z m1257 -38
c-2 -45 -9 -58 -55 -109 l-25 -27 50 15 c50 15 100 20 54 5 -22 -7 -20 -8 12
-7 25 1 33 5 27 13 -5 7 -3 11 6 11 8 0 11 -5 8 -10 -4 -6 9 -7 33 -3 21 3
-26 -16 -105 -43 -80 -28 -164 -64 -188 -80 -24 -17 -46 -31 -50 -31 -3 0 21
28 54 63 70 73 144 171 162 216 8 17 15 31 17 31 1 0 2 -20 0 -44z m1574 40
c0 -2 -8 -10 -17 -17 -16 -13 -17 -12 -4 4 13 16 21 21 21 13z m-1553 -83 c-3
-10 -5 -4 -5 12 0 17 2 24 5 18 2 -7 2 -21 0 -30z m30 15 c-3 -8 -6 -5 -6 6
-1 11 2 17 5 13 3 -3 4 -12 1 -19z m188 12 c-3 -5 -14 -10 -23 -9 -14 0 -13 2
3 9 27 11 27 11 20 0z m1295 7 c0 -2 -10 -12 -22 -23 l-23 -19 19 23 c18 21
26 27 26 19z m-1380 -26 c0 -4 -15 -11 -32 -14 -18 -4 -44 -9 -58 -13 -20 -5
-23 -4 -13 6 10 11 44 21 96 29 4 0 7 -3 7 -8z m1747 -17 c-3 -3 -12 -4 -19
-1 -8 3 -5 6 6 6 11 1 17 -2 13 -5z m-1912 -133 c-3 -5 0 -11 7 -14 7 -2 0 -2
-17 0 -23 3 -27 2 -15 -6 13 -9 12 -11 -5 -13 -40 -3 -50 -5 -70 -13 -74 -29
-88 -36 -84 -39 2 -3 36 5 74 16 39 11 81 22 95 24 14 2 17 1 8 -2 -10 -3 -18
-9 -18 -14 0 -9 -39 -23 -169 -60 -43 -13 -69 -25 -62 -29 7 -5 -12 -13 -44
-21 -31 -7 -59 -18 -62 -23 -4 -6 0 -8 8 -5 8 3 48 13 89 23 41 9 98 23 127
31 56 15 107 19 63 4 -148 -49 -224 -70 -236 -66 -8 3 -13 2 -10 -2 3 -5 -17
-16 -43 -26 -75 -27 -99 -50 -27 -26 67 23 77 24 56 9 -12 -8 -10 -9 10 -5 14
3 32 6 40 7 10 0 8 3 -5 9 -17 7 -16 9 10 9 17 1 41 4 54 8 18 4 22 2 19 -8
-3 -9 -44 -22 -109 -36 -57 -11 -93 -22 -79 -23 26 -2 -119 -39 -155 -39 -18
-1 -18 1 5 19 14 11 77 57 140 102 63 45 128 92 143 105 16 13 33 21 37 18 5
-3 27 6 49 20 23 14 43 25 47 25 3 0 20 6 37 14 26 11 78 31 95 35 2 1 1 -3
-3 -8z m1900 -50 c-6 -5 -25 10 -25 20 0 5 6 4 14 -3 8 -7 12 -15 11 -17z
m282 7 c-3 -8 -6 -5 -6 6 -1 11 2 17 5 13 3 -3 4 -12 1 -19z m-2266 -74 c-25
-8 -61 -16 -80 -19 -20 -2 -7 4 29 14 75 22 117 26 51 5z m-124 -30 c-3 -3
-12 -4 -19 -1 -8 3 -5 6 6 6 11 1 17 -2 13 -5z m190 -10 c-3 -3 -12 -4 -19 -1
-8 3 -5 6 6 6 11 1 17 -2 13 -5z m-40 -10 c-3 -3 -12 -4 -19 -1 -8 3 -5 6 6 6
11 1 17 -2 13 -5z m-52 -14 c-11 -5 -27 -9 -35 -9 -9 0 -8 4 5 9 11 5 27 9 35
9 9 0 8 -4 -5 -9z m38 -27 c-7 -2 -21 -2 -30 0 -10 3 -4 5 12 5 17 0 24 -2 18
-5z m2624 -19 c-3 -3 -12 -4 -19 -1 -8 3 -5 6 6 6 11 1 17 -2 13 -5z m-2604
-11 c-7 -2 -19 -2 -25 0 -7 3 -2 5 12 5 14 0 19 -2 13 -5z m-110 -20 c-7 -2
-19 -2 -25 0 -7 3 -2 5 12 5 14 0 19 -2 13 -5z m-46 -9 c-3 -3 -12 -4 -19 -1
-8 3 -5 6 6 6 11 1 17 -2 13 -5z m-54 -11 c-7 -2 -19 -2 -25 0 -7 3 -2 5 12 5
14 0 19 -2 13 -5z m-60 -10 c-7 -2 -21 -2 -30 0 -10 3 -4 5 12 5 17 0 24 -2
18 -5z m254 -129 c-3 -3 -12 -4 -19 -1 -8 3 -5 6 6 6 11 1 17 -2 13 -5z m1150
-30 c-3 -3 -12 -4 -19 -1 -8 3 -5 6 6 6 11 1 17 -2 13 -5z m1900 0 c-3 -3 -12
-4 -19 -1 -8 3 -5 6 6 6 11 1 17 -2 13 -5z m226 -1 c-7 -2 -19 -2 -25 0 -7 3
-2 5 12 5 14 0 19 -2 13 -5z m-2270 -20 c-7 -2 -19 -2 -25 0 -7 3 -2 5 12 5
14 0 19 -2 13 -5z m147 -14 c0 -5 -29 -58 -64 -117 -35 -59 -66 -117 -70 -129
-4 -11 -17 -24 -30 -27 -59 -15 -485 -79 -1001 -151 -137 -19 -261 -38 -275
-41 -56 -12 17 25 86 44 76 21 65 7 169 192 34 59 44 70 62 67 12 -2 20 -1 18
4 -3 4 19 10 47 14 29 3 65 8 81 11 15 3 27 2 27 -3 -1 -15 -27 -43 -34 -36
-4 4 -4 -1 0 -11 6 -15 4 -17 -6 -11 -8 5 -11 4 -7 -2 3 -5 -2 -21 -11 -36
-13 -19 -22 -23 -32 -17 -9 6 -20 4 -30 -4 -8 -7 -28 -19 -45 -25 -27 -10 -27
-11 -3 -6 14 3 34 8 44 12 13 5 15 3 9 -8 -5 -8 1 -5 13 5 28 25 28 19 -4 -38
-31 -55 -25 -62 7 -8 12 20 41 66 64 102 23 36 44 72 48 82 3 9 22 19 44 22
74 12 173 22 173 18 0 -15 -63 -101 -71 -96 -5 3 -6 -1 -3 -9 6 -16 -80 -137
-98 -137 -6 0 -9 -2 -6 -5 15 -15 47 19 119 129 44 66 86 124 92 127 18 9 207
33 213 26 9 -8 -104 -209 -129 -231 -20 -17 -20 -18 -3 -15 20 4 66 74 126
189 19 36 34 66 34 67 2 3 221 31 224 28 2 -2 -3 -16 -12 -32 -8 -15 -15 -24
-16 -19 0 5 -7 3 -15 -4 -8 -6 -34 -18 -57 -26 l-43 -14 45 6 c25 4 48 12 52
18 6 8 8 8 8 -1 0 -16 -86 -128 -117 -153 -14 -11 -21 -20 -15 -20 17 0 115
113 156 181 22 35 41 66 43 68 3 5 136 28 171 30 12 0 22 -4 22 -10z m2738 -5
l162 -7 0 -138 0 -139 -270 0 -270 0 0 151 0 152 108 -7 c59 -3 180 -9 270
-12z m-3021 0 c-3 -3 -12 -4 -19 -1 -8 3 -5 6 6 6 11 1 17 -2 13 -5z m-1060
-46 c-3 -8 -6 -5 -6 6 -1 11 2 17 5 13 3 -3 4 -12 1 -19z m770 6 c-3 -3 -12
-4 -19 -1 -8 3 -5 6 6 6 11 1 17 -2 13 -5z m1873 -39 l0 -35 -55 0 -55 0 0
-367 0 -368 50 3 c41 3 50 1 50 -12 0 -12 -10 -16 -45 -16 -25 0 -45 -4 -45
-10 0 -13 46 -24 103 -25 26 0 47 -3 47 -6 0 -12 -36 -37 -75 -54 -36 -15 -38
-17 -22 -29 16 -13 16 -14 -5 -20 -13 -3 -69 -6 -125 -6 l-103 0 0 60 0 60 60
0 c33 0 60 4 60 10 0 12 -63 24 -95 18 -17 -4 -25 -1 -25 8 0 10 17 14 65 14
l65 0 0 370 0 369 -60 -3 -60 -3 0 39 0 38 135 0 135 0 0 -35z m-477 -2 c-7
-2 -19 -2 -25 0 -7 3 -2 5 12 5 14 0 19 -2 13 -5z m834 1 c-3 -3 -12 -4 -19
-1 -8 3 -5 6 6 6 11 1 17 -2 13 -5z m183 -14 c-73 -12 -194 -21 -187 -14 6 7
138 21 197 21 31 1 29 0 -10 -7z m-2803 -6 c-3 -3 -12 -4 -19 -1 -8 3 -5 6 6
6 11 1 17 -2 13 -5z m2913 -36 c0 -18 3 -50 6 -70 l7 -38 -77 0 -76 0 0 34 c0
18 -3 47 -6 64 l-6 31 63 4 c35 2 70 4 77 5 7 1 12 -10 12 -30z m-160 -30 c0
-24 3 -53 6 -65 5 -19 2 -21 -53 -25 -32 -2 -59 -3 -61 -2 -2 1 -6 28 -9 59
-7 67 0 75 70 75 l47 0 0 -42z m-490 -241 c0 -196 -3 -266 -12 -275 -10 -10
-10 -14 0 -21 9 -5 12 -25 10 -57 -3 -46 -5 -49 -35 -55 l-33 -6 0 338 0 339
35 0 35 0 0 -263z m-184 237 c-3 -9 -6 -160 -6 -338 l0 -321 -40 0 -40 0 0
276 c0 152 3 304 6 338 l7 61 39 0 c33 0 39 -3 34 -16z m-2453 -21 c-7 -2 -19
-2 -25 0 -7 3 -2 5 12 5 14 0 19 -2 13 -5z m142 -12 c3 -5 0 -13 -6 -17 -7 -4
-9 -3 -5 4 3 6 -2 13 -11 15 -16 4 -16 5 -1 6 9 0 19 -3 23 -8z m2402 -473
c-1 -90 -3 -19 -3 157 0 176 2 249 3 163 2 -86 2 -230 0 -320z m-2552 380 c6
-4 2 -8 -7 -8 -10 0 -18 7 -18 17 0 9 3 12 8 7 4 -5 12 -12 17 -16z m3118 15
c-18 -2 -48 -2 -65 0 -18 2 -4 4 32 4 36 0 50 -2 33 -4z m195 -59 l3 -61 -38
-7 c-79 -12 -92 -9 -97 27 -16 101 -18 96 38 100 94 7 91 9 94 -59z m-2028 14
c24 -53 29 -50 -146 -73 -71 -9 -151 -21 -179 -26 -27 -5 -239 -36 -470 -69
-231 -33 -431 -62 -445 -64 -23 -4 -27 0 -36 39 l-10 44 55 6 c31 4 93 12 137
19 67 10 85 10 100 -1 28 -21 42 -14 15 7 l-23 20 38 2 c22 1 57 3 79 3 22 1
54 3 70 4 27 2 28 3 10 11 -15 7 -11 8 15 5 19 -3 91 4 160 15 69 11 211 33
315 50 105 16 208 33 230 38 63 15 65 15 85 -30z m2047 10 c-3 -7 -5 -2 -5 12
0 14 2 19 5 13 2 -7 2 -19 0 -25z m-173 6 c3 -9 6 -35 6 -60 0 -48 -3 -50 -87
-56 -40 -3 -41 -2 -47 32 -3 19 -6 47 -6 62 0 28 -3 27 106 36 12 1 25 -5 28
-14z m1086 -188 l0 -173 -261 -8 c-143 -4 -262 -5 -263 -3 -2 1 -6 83 -9 181
l-7 177 270 0 270 0 0 -174z m-913 142 c-3 -8 -6 -5 -6 6 -1 11 2 17 5 13 3
-3 4 -12 1 -19z m1667 -28 c-7 -8 -28 -24 -46 -35 l-33 -19 38 44 c20 24 37
48 38 54 0 6 4 2 9 -9 5 -13 3 -25 -6 -35z m-1347 -2 c-3 -8 -6 -5 -6 6 -1 11
2 17 5 13 3 -3 4 -12 1 -19z m1408 -61 c11 -10 34 -24 50 -32 17 -8 23 -14 13
-15 -9 0 -23 -3 -32 -6 -26 -10 -76 48 -75 88 0 33 0 33 12 8 7 -14 21 -33 32
-43z m-5078 47 c-3 -3 -12 -4 -19 -1 -8 3 -5 6 6 6 11 1 17 -2 13 -5z m460
-10 c-3 -3 -12 -4 -19 -1 -8 3 -5 6 6 6 11 1 17 -2 13 -5z m651 -31 c-10 -2
-26 -2 -35 0 -10 3 -2 5 17 5 19 0 27 -2 18 -5z m2233 -63 c3 -36 4 -67 3 -69
-2 -2 -34 -6 -72 -9 -62 -4 -75 -2 -120 23 -27 15 -67 45 -88 66 l-38 39 64 1
c36 1 94 5 130 9 117 13 114 15 121 -60z m-2258 33 c-7 -2 -19 -2 -25 0 -7 3
-2 5 12 5 14 0 19 -2 13 -5z m-1069 -59 c7 -31 7 -31 -45 -38 -28 -4 -52 -6
-54 -4 -1 2 -5 22 -9 45 l-6 42 47 3 c52 3 57 -1 67 -48z m2951 -5 c47 -60 53
-79 18 -61 -34 19 -67 62 -69 92 -1 17 -1 30 1 30 1 0 23 -27 50 -61z m-1982
44 c-7 -2 -19 -2 -25 0 -7 3 -2 5 12 5 14 0 19 -2 13 -5z m2125 -87 c68 -41
77 -56 34 -56 -30 0 -93 40 -127 81 -14 17 -10 16 13 -5 17 -17 32 -26 32 -20
0 5 4 3 9 -5 5 -8 11 -9 15 -3 3 6 -9 19 -27 31 -18 11 -44 32 -57 48 -24 26
-23 26 11 -3 20 -17 64 -47 97 -68z m-229 71 c-40 -32 -78 -57 -85 -57 -5 0
-1 5 9 11 9 6 15 14 12 18 -2 5 3 15 13 22 15 13 16 12 3 -3 -19 -25 2 -23 24
2 10 11 20 18 23 15 3 -3 3 -6 1 -8z m-2006 -4 c-7 -2 -19 -2 -25 0 -7 3 -2 5
12 5 14 0 19 -2 13 -5z m464 -9 c-3 -3 -12 -4 -19 -1 -8 3 -5 6 6 6 11 1 17
-2 13 -5z m-560 -10 c-3 -3 -12 -4 -19 -1 -8 3 -5 6 6 6 11 1 17 -2 13 -5z
m-420 -20 c-3 -3 -12 -4 -19 -1 -8 3 -5 6 6 6 11 1 17 -2 13 -5z m-130 -20
c-3 -3 -12 -4 -19 -1 -8 3 -5 6 6 6 11 1 17 -2 13 -5z m740 0 c-3 -3 -12 -4
-19 -1 -8 3 -5 6 6 6 11 1 17 -2 13 -5z m3577 -66 c24 -16 26 -19 9 -15 -12 3
-24 2 -26 -2 -2 -3 -2 0 -1 7 2 6 -6 12 -17 12 -14 0 -19 5 -16 14 3 8 -1 20
-9 26 -12 11 -14 4 -14 -41 0 -52 -1 -53 -16 -31 -15 22 -17 23 -42 6 -20 -13
-16 -5 16 29 23 26 42 52 42 59 0 7 10 0 22 -16 12 -15 35 -37 52 -48z m-4381
55 c-7 -2 -19 -2 -25 0 -7 3 -2 5 12 5 14 0 19 -2 13 -5z m4772 -23 c-10 -11
-22 -17 -28 -13 -6 4 -1 14 13 25 29 23 39 15 15 -12z m-4848 14 c-3 -3 -12
-4 -19 -1 -8 3 -5 6 6 6 11 1 17 -2 13 -5z m-64 -11 c-7 -2 -19 -2 -25 0 -7 3
-2 5 12 5 14 0 19 -2 13 -5z m64 -9 c-3 -3 -12 -4 -19 -1 -8 3 -5 6 6 6 11 1
17 -2 13 -5z m3300 0 c-3 -3 -12 -4 -19 -1 -8 3 -5 6 6 6 11 1 17 -2 13 -5z
m1651 -14 c15 -24 81 -67 131 -85 26 -9 32 -15 20 -19 -25 -11 -83 20 -133 70
-45 46 -46 47 -40 18 7 -36 -14 -68 -36 -54 -13 8 -13 11 -1 22 9 8 11 9 7 1
-3 -6 -2 -14 4 -18 11 -7 25 39 15 54 -7 12 2 31 13 31 4 0 13 -9 20 -20z
m422 -22 c0 -4 -10 -8 -23 -8 -13 0 -29 -6 -36 -12 -11 -11 -12 -10 -5 2 34
57 38 61 52 43 6 -9 12 -20 12 -25z m-6293 -60 c15 -15 46 -35 69 -44 24 -9
41 -21 37 -27 -7 -12 -98 -3 -134 13 -23 10 -26 17 -20 39 10 36 8 50 -7 60
-7 4 -10 15 -6 25 5 14 9 12 21 -11 8 -15 26 -40 40 -55z m3563 75 c0 -1 -8
-7 -18 -12 -13 -7 -19 -6 -19 2 0 7 9 13 19 13 10 0 18 -1 18 -3z m1557 -25
c-3 -7 -5 -2 -5 12 0 14 2 19 5 13 2 -7 2 -19 0 -25z m73 27 c0 -2 -10 -9 -22
-15 -22 -11 -22 -10 -4 4 21 17 26 19 26 11z m1240 -5 c0 -30 -108 -32 -118
-2 -2 8 14 12 57 12 35 0 61 -4 61 -10z m-2686 -12 c-5 -7 -9 -20 -9 -29 -2
-26 -31 -49 -86 -70 -54 -21 -84 -24 -74 -9 4 6 11 8 16 5 5 -4 9 -2 9 3 0 5
26 26 58 47 31 21 51 31 44 23 -8 -10 -9 -18 -3 -22 6 -4 15 3 21 14 6 11 8
20 4 20 -3 0 -1 7 6 15 15 18 24 20 14 3z m162 -9 c19 -22 19 -22 -3 -8 -13 8
-23 17 -23 21 0 12 6 9 26 -13z m-246 1 c0 -5 -5 -10 -11 -10 -5 0 -7 5 -4 10
3 6 8 10 11 10 2 0 4 -4 4 -10z m170 -7 c0 -14 2 -15 9 -4 6 9 11 10 15 2 4
-6 2 -11 -4 -11 -6 0 -8 -5 -4 -12 4 -7 3 -8 -4 -4 -18 11 -35 46 -22 46 5 0
10 -8 10 -17z m1506 -38 c8 -12 11 -25 7 -29 -5 -4 -3 -6 2 -4 6 2 11 -1 12
-7 1 -5 12 -13 24 -17 12 -5 19 -11 16 -14 -8 -8 -74 33 -81 49 -3 9 -8 8 -16
-3 -9 -13 -10 -12 -7 5 2 11 8 19 15 18 7 -2 10 8 8 25 -2 15 -1 20 1 12 3 -8
12 -24 19 -35z m-1423 -102 c4 -7 0 -10 -9 -6 -7 3 -14 9 -14 15 0 5 -4 7 -8
4 -15 -9 -78 41 -95 76 l-17 33 0 -52 c0 -32 -4 -53 -11 -53 -6 0 -8 7 -5 16
3 8 2 12 -4 9 -6 -3 -10 -1 -10 4 0 6 5 11 11 11 5 0 8 4 5 9 -3 5 -3 23 0 39
l6 31 73 -62 c40 -34 75 -67 78 -74z m64 131 c-3 -3 -12 -4 -19 -1 -8 3 -5 6
6 6 11 1 17 -2 13 -5z m-87 -30 c6 -15 16 -24 23 -21 8 3 14 -1 14 -9 0 -11
-6 -10 -28 4 -15 9 -28 20 -28 25 -4 35 6 36 19 1z m1227 4 c-3 -8 -6 -5 -6 6
-1 11 2 17 5 13 3 -3 4 -12 1 -19z m-5180 -20 c-3 -7 -5 -2 -5 12 0 14 2 19 5
13 2 -7 2 -19 0 -25z m427 -45 c-16 -13 -33 -23 -38 -23 -5 0 3 9 17 20 14 11
29 31 33 43 7 21 8 21 12 2 3 -12 -6 -27 -24 -42z m5970 38 c12 -10 39 -28 61
-40 30 -16 34 -21 18 -21 -32 0 -54 11 -46 23 4 6 0 8 -9 4 -9 -3 -23 2 -31
11 -35 42 -30 58 7 23z m-5563 0 c-8 -5 -11 -16 -8 -25 4 -9 2 -16 -3 -16 -11
0 -14 33 -3 43 3 4 11 7 17 7 6 0 5 -4 -3 -9z m5469 -15 c0 -2 -8 -10 -17 -17
-16 -13 -17 -12 -4 4 13 16 21 21 21 13z m55 -17 c11 -17 -1 -21 -15 -4 -8 9
-8 15 -2 15 6 0 14 -5 17 -11z m-5844 -16 c13 -17 13 -17 -6 -3 -11 8 -22 16
-24 17 -2 2 0 3 6 3 6 0 17 -8 24 -17z m5627 -14 l64 -12 -35 -34 c-34 -34
-35 -35 -65 -19 -31 16 -72 61 -72 78 0 6 10 8 23 5 12 -3 51 -11 85 -18z
m117 11 c-3 -5 -16 -15 -28 -21 -21 -10 -21 -9 2 10 25 23 36 27 26 11z
m-6240 -104 c4 -47 4 -48 -15 -31 -15 13 -20 31 -20 65 0 89 28 62 35 -34z
m575 59 c0 -6 -71 2 -77 9 -4 3 1 6 11 6 10 0 14 5 10 11 -3 6 8 3 25 -5 17
-9 31 -18 31 -21z m3497 29 c-3 -3 -12 -4 -19 -1 -8 3 -5 6 6 6 11 1 17 -2 13
-5z m1882 -12 c6 -11 6 -24 0 -33 -7 -11 -9 -8 -9 11 0 20 -2 22 -10 10 -7
-12 -9 -10 -7 8 2 27 13 28 26 4z m-5524 -21 c-6 -21 -25 -20 -25 0 0 6 5 7
10 4 6 -3 10 2 10 11 0 10 3 15 6 11 3 -3 3 -15 -1 -26z m5395 -1 c-6 -11 -15
-20 -20 -20 -4 0 -17 -3 -27 -6 -12 -4 -9 2 10 20 34 31 52 34 37 6z m-1728
-77 c22 -3 35 -10 31 -16 -3 -6 -1 -7 5 -3 15 9 82 -3 82 -15 0 -13 -131 -11
-169 2 -24 9 -29 14 -21 24 8 10 8 15 -1 21 -7 4 -9 3 -5 -4 9 -14 -11 -25
-32 -17 -16 6 -15 8 2 21 11 8 15 14 10 14 -6 0 -15 -5 -22 -12 -9 -9 -18 -6
-38 13 -58 54 -47 60 38 18 46 -22 100 -42 120 -46z m1245 55 c-3 -7 -5 -2 -5
12 0 14 2 19 5 13 2 -7 2 -19 0 -25z m31 1 c-3 -8 -7 -3 -11 10 -4 17 -3 21 5
13 5 -5 8 -16 6 -23z m522 4 c0 -19 -13 -9 -16 12 -1 8 2 13 7 9 5 -3 9 -12 9
-21z m-2152 -7 c-1 -14 -5 -23 -9 -20 -4 2 -6 12 -4 22 5 23 4 22 10 22 3 0 4
-11 3 -24z m1579 18 c-3 -3 -12 -4 -19 -1 -8 3 -5 6 6 6 11 1 17 -2 13 -5z
m-5424 -25 c-8 -8 -13 -7 -18 2 -5 8 -4 10 3 5 7 -4 12 -2 12 5 0 7 3 9 7 6 4
-4 2 -12 -4 -18z m3930 8 c3 -8 2 -20 -3 -26 -5 -9 -7 -4 -7 13 0 29 2 32 10
13z m1407 2 c0 -4 -6 -9 -13 -12 -8 -3 -14 0 -14 7 0 7 6 13 14 13 7 0 13 -4
13 -8z m688 -30 c-3 -8 -7 -3 -11 10 -4 17 -3 21 5 13 5 -5 8 -16 6 -23z m-98
7 c-8 -7 -28 -16 -45 -20 -30 -6 -30 -6 5 13 42 23 60 26 40 7z m400 4 c0 -16
-35 -29 -60 -23 -22 6 -22 7 -5 20 22 15 65 18 65 3z m195 -10 c3 -6 -1 -7 -9
-4 -18 7 -21 14 -7 14 6 0 13 -4 16 -10z m-118 -22 c-2 -12 -9 -24 -16 -26 -9
-3 -9 2 0 22 15 32 20 33 16 4z m-6377 7 c0 -9 -51 -55 -61 -55 -6 0 -8 -4 -5
-9 3 -5 -2 -11 -12 -14 -9 -2 -26 -8 -37 -12 -11 -4 1 6 26 23 25 18 54 41 64
52 18 20 25 24 25 15z m23 -10 c4 -8 2 -17 -3 -20 -6 -4 -10 3 -10 14 0 25 6
27 13 6z m476 -7 c0 -13 -3 -18 -5 -11 -7 17 -91 -42 -109 -78 -14 -26 -45
-41 -45 -21 0 15 133 126 158 131 1 1 2 -9 1 -21z m5941 -10 c0 -5 -7 -8 -15
-8 -15 0 -20 21 -8 33 7 7 23 -11 23 -25z m-5851 -10 c16 -18 28 -35 25 -37
-3 -4 -64 57 -64 65 0 10 13 1 39 -28z m1931 22 c341 -23 592 -91 1004 -270
379 -165 627 -224 941 -224 253 0 371 23 665 130 85 31 175 62 199 69 l45 12
-59 7 c-71 8 -145 26 -145 35 0 8 150 46 270 68 141 25 432 22 560 -6 108 -23
360 -88 366 -94 2 -2 -10 -16 -26 -32 l-30 -29 -69 37 c-38 20 -72 37 -77 37
-5 0 14 -13 42 -28 108 -60 109 -47 -11 -153 -59 -52 -111 -96 -116 -98 -6 -2
-37 9 -69 23 -63 28 -200 66 -234 65 -24 -1 -24 -1 100 -39 39 -12 94 -35 123
-51 l52 -30 -42 -34 c-44 -38 -44 -38 -104 11 -109 87 -251 143 -386 151 l-86
6 -23 -34 c-134 -194 -294 -299 -555 -365 -453 -114 -937 -72 -1330 115 -126
60 -186 99 -305 196 -187 154 -347 245 -530 303 -139 44 -227 56 -400 56 -229
0 -314 -19 -850 -182 -194 -59 -358 -97 -490 -113 -118 -14 -483 -6 -664 16
-142 17 -183 14 -59 -4 235 -34 373 -43 568 -38 261 7 385 30 720 133 463 144
557 164 764 164 153 0 281 -20 418 -65 168 -56 306 -135 486 -279 125 -99 196
-146 313 -204 282 -142 620 -204 980 -182 160 11 168 12 324 42 274 53 448
153 586 338 54 72 71 89 88 85 12 -2 47 -6 78 -9 115 -12 290 -91 359 -162
l31 -32 -54 -42 c-217 -173 -603 -392 -948 -540 -169 -72 -490 -181 -605 -205
-173 -36 -398 -30 -688 16 -127 20 -129 20 -150 1 -98 -87 -312 -132 -530
-112 -219 21 -362 72 -651 232 -118 66 -154 91 -311 217 -71 58 -165 133 -208
168 -155 124 -314 212 -482 266 -203 66 -257 72 -565 70 -151 -1 -304 -6 -340
-11 -45 -6 28 -8 235 -4 274 4 311 3 424 -17 225 -38 438 -124 609 -245 48
-34 170 -129 272 -211 198 -159 289 -222 388 -270 34 -16 62 -33 62 -36 0 -10
-111 -37 -180 -44 -81 -8 -201 13 -295 50 -39 15 -140 66 -225 113 -172 95
-280 144 -371 167 -79 21 -86 14 -11 -9 78 -25 219 -92 326 -155 130 -77 252
-136 331 -160 135 -42 285 -37 415 14 l46 18 43 -28 c69 -43 229 -102 342
-126 151 -32 373 -32 482 -1 90 26 141 50 186 88 30 25 36 26 84 18 l52 -9
-50 -37 c-149 -112 -288 -157 -505 -165 -221 -8 -382 27 -597 129 l-92 44 27
28 27 28 -37 -25 c-20 -13 -69 -35 -110 -48 -62 -20 -93 -24 -203 -24 -109 0
-141 4 -199 23 -100 34 -171 72 -256 139 -168 133 -244 171 -405 207 -130 29
-194 55 -375 155 -212 116 -442 271 -630 424 -85 68 -328 288 -329 297 -1 3
113 6 252 8 376 4 642 35 1167 136 486 94 732 126 1005 134 33 1 125 -3 205
-8z m2848 -5 c-2 -6 -6 -9 -10 -7 -5 1 -7 -3 -5 -9 1 -6 -15 -22 -36 -35 l-38
-25 15 30 c16 31 54 63 69 58 5 -1 7 -7 5 -12z m796 -26 c5 -5 7 -11 4 -15 -7
-6 -64 21 -73 36 -6 11 55 -8 69 -21z m-599 -4 l40 -25 -34 2 c-22 2 -39 11
-49 26 -19 29 -7 28 43 -3z m145 10 c-14 -17 -85 -21 -95 -6 -5 9 23 15 84 19
20 2 22 0 11 -13z m-1760 -20 c14 -19 14 -19 -2 -6 -10 7 -18 18 -18 24 0 6 1
8 3 6 1 -2 9 -13 17 -24z m1454 -22 c-26 -19 -29 -8 -8 24 16 25 19 26 22 9 2
-11 -4 -25 -14 -33z m-4849 9 c-3 -3 -11 0 -18 7 -9 10 -8 11 6 5 10 -3 15 -9
12 -12z m4410 8 c3 -6 -1 -7 -9 -4 -18 7 -21 14 -7 14 6 0 13 -4 16 -10z
m1595 0 c0 -5 -2 -10 -4 -10 -3 0 -8 5 -11 10 -3 6 -1 10 4 10 6 0 11 -4 11
-10z m-490 -15 c7 -9 10 -18 7 -21 -10 -11 -37 5 -37 21 0 19 14 19 30 0z
m-1910 -10 c6 -4 7 -11 4 -17 -5 -7 -2 -9 7 -6 16 6 76 -17 63 -24 -15 -9 -68
11 -99 36 -27 23 -28 25 -7 21 12 -2 27 -7 32 -10z m80 5 c-14 -4 -19 -8 -11
-9 8 -1 12 -4 8 -7 -9 -9 -28 6 -22 17 4 5 16 9 28 8 20 -1 20 -2 -3 -9z m180
6 c0 -2 -9 -6 -20 -9 -11 -3 -18 -1 -14 4 5 9 34 13 34 5z m-3750 -22 c0 -2
-7 -4 -15 -4 -8 0 -15 4 -15 10 0 5 7 7 15 4 8 -4 15 -8 15 -10z m3910 -8
c145 -42 203 -49 247 -31 21 9 48 26 60 37 22 21 24 21 58 5 42 -20 107 -22
170 -5 46 12 83 3 78 -20 -1 -5 9 -7 22 -4 29 5 34 -18 10 -38 -13 -11 -14
-10 -9 4 5 12 0 16 -17 16 -19 0 -21 -2 -9 -10 18 -12 15 -12 -120 -15 -52 -1
-207 -7 -344 -14 -137 -6 -250 -10 -252 -8 -6 6 9 107 15 107 4 0 45 -11 91
-24z m-4580 -11 c0 -8 -4 -15 -10 -15 -5 0 -10 7 -10 15 0 8 5 15 10 15 6 0
10 -7 10 -15z m3803 0 c-3 -9 -8 -14 -10 -11 -3 3 -2 9 2 15 9 16 15 13 8 -4z
m76 -6 c-12 -7 -12 -9 0 -9 8 0 12 -3 8 -6 -10 -10 -26 6 -21 21 4 8 11 12 16
9 6 -4 5 -10 -3 -15z m448 15 c-3 -3 -12 -4 -19 -1 -8 3 -5 6 6 6 11 1 17 -2
13 -5z m123 -23 c0 -25 -4 -29 -37 -34 -41 -7 -130 17 -103 27 17 6 121 34
133 35 4 1 7 -12 7 -28z m1508 11 c3 -9 -2 -13 -14 -10 -9 1 -19 9 -22 16 -3
9 2 13 14 10 9 -1 19 -9 22 -16z m-5908 -20 c-1 -9 -8 -28 -16 -42 -8 -14 -13
-17 -10 -7 3 10 6 32 6 48 0 18 4 28 10 24 6 -3 10 -14 10 -23z m5420 13 c0
-8 -7 -15 -15 -15 -8 0 -15 7 -15 15 0 8 7 15 15 15 8 0 15 -7 15 -15z m990
-6 c0 -6 -4 -7 -10 -4 -5 3 -10 11 -10 16 0 6 5 7 10 4 6 -3 10 -11 10 -16z
m-6520 -9 c0 -12 -88 -70 -105 -70 -7 0 -20 9 -29 19 -17 18 -15 20 46 39 75
24 88 25 88 12z m6428 -15 c-3 -3 -9 2 -12 12 -6 14 -5 15 5 6 7 -7 10 -15 7
-18z m-6222 0 c10 -8 14 -15 7 -15 -6 0 -15 5 -18 10 -3 6 -11 10 -16 10 -6 0
-7 -4 -4 -10 3 -5 1 -10 -4 -10 -6 0 -11 7 -11 15 0 19 21 19 46 0z m5174 6
c0 -5 -8 -11 -17 -14 -10 -2 -27 -8 -38 -12 -11 -4 -7 2 10 14 32 23 45 26 45
12z m-1266 -24 c16 -12 16 -13 -3 -13 -11 0 -18 3 -15 7 2 4 -2 10 -8 12 -7 3
-8 6 -2 6 5 1 18 -5 28 -12z m-3519 -16 c-3 -6 -11 -11 -16 -11 -5 0 -4 6 3
14 14 16 24 13 13 -3z m4528 12 c-7 -2 -21 -2 -30 0 -10 3 -4 5 12 5 17 0 24
-2 18 -5z m-4348 -13 c15 -7 10 -9 -22 -9 -24 -1 -43 4 -43 9 0 12 37 12 65 0z
m3723 -2 c-3 -7 -20 -14 -40 -16 -26 -2 -35 1 -35 12 0 12 11 16 40 16 26 0
37 -4 35 -12z m1842 1 c25 -9 29 -14 18 -20 -16 -9 -86 6 -102 22 -14 13 44
11 84 -2z m-5874 -14 c-11 -8 -29 -15 -40 -15 -21 1 -21 1 -2 15 11 8 29 15
40 15 21 -1 21 -1 2 -15z m-221 -25 l20 -9 -20 0 c-11 0 -27 4 -35 9 -13 9
-13 10 0 9 8 0 24 -4 35 -9z m4338 -7 c-7 -2 -19 -2 -25 0 -7 3 -2 5 12 5 14
0 19 -2 13 -5z m-4615 -10 c-10 -2 -26 -2 -35 0 -10 3 -2 5 17 5 19 0 27 -2
18 -5z m4542 -3 c-34 -11 -60 -11 -35 0 11 5 29 8 40 8 16 0 15 -2 -5 -8z
m517 4 c-3 -3 -12 -4 -19 -1 -8 3 -5 6 6 6 11 1 17 -2 13 -5z m136 -11 c-13
-2 -33 -2 -45 0 -13 2 -3 4 22 4 25 0 35 -2 23 -4z m-1453 -23 c8 -5 11 -10 5
-10 -5 0 -17 5 -25 10 -8 5 -10 10 -5 10 6 0 17 -5 25 -10z m1608 -7 l44 -6
-32 -13 c-25 -11 -35 -11 -51 -1 -10 6 -19 15 -19 19 0 3 -6 8 -12 11 -7 2 -4
2 7 0 11 -2 40 -6 63 -10z m-881 -45 c-3 -8 -6 -5 -6 6 -1 11 2 17 5 13 3 -3
4 -12 1 -19z m824 1 c-14 -5 -28 -6 -32 -2 -4 4 6 9 24 10 30 1 31 1 8 -8z
m-61 -19 c-8 -5 -19 -10 -25 -10 -5 0 -3 5 5 10 8 5 20 10 25 10 6 0 3 -5 -5
-10z m-353 -6 c-5 -5 -186 -29 -262 -35 -17 -1 -16 -2 5 -9 l25 -8 -25 -2
c-14 -1 -19 -4 -12 -7 6 -2 9 -10 5 -16 -5 -8 -2 -8 8 0 13 10 16 10 16 -2 0
-11 -14 -15 -56 -17 -38 -1 -24 -4 44 -8 l100 -6 -143 -2 c-138 -2 -142 -1
-132 17 5 11 10 29 10 40 0 12 3 20 8 19 4 -1 22 2 41 6 26 6 30 10 20 18 -10
7 -7 8 11 5 14 -3 66 -2 115 2 118 10 230 13 222 5z m-387 -20 c0 -2 -7 -4
-15 -4 -8 0 -15 4 -15 10 0 5 7 7 15 4 8 -4 15 -8 15 -10z m203 -21 c-7 -2
-19 -2 -25 0 -7 3 -2 5 12 5 14 0 19 -2 13 -5z m105 -60 c-10 -2 -26 -2 -35 0
-10 3 -2 5 17 5 19 0 27 -2 18 -5z"/>
<path d="M7850 7169 c37 -15 108 -89 119 -123 23 -76 21 -151 -5 -221 -7 -18
-6 -19 9 -6 22 17 111 10 156 -13 17 -9 31 -14 31 -11 0 14 -88 45 -127 45
-41 0 -42 1 -33 26 14 35 13 124 -2 165 -27 79 -101 150 -154 148 -15 0 -13
-3 6 -10z"/>
<path d="M6901 7104 c90 -97 123 -186 117 -314 -5 -101 -30 -171 -89 -250
l-41 -55 40 39 c78 75 130 212 118 314 -13 113 -74 228 -148 281 l-33 24 36
-39z"/>
<path d="M5722 7087 c-29 -35 -52 -105 -51 -157 l2 -55 8 64 c4 36 19 87 33
113 25 48 28 59 8 35z"/>
<path d="M8208 6570 c145 -66 231 -221 220 -396 -4 -55 -2 -71 5 -58 6 10 12
50 15 89 10 156 -74 308 -202 366 -23 10 -50 19 -61 19 -12 0 -3 -8 23 -20z"/>
<path d="M6620 6135 c-36 -94 -31 -237 10 -315 23 -43 25 -36 5 21 -24 66 -29
174 -13 252 15 70 14 85 -2 42z"/>
<path d="M6734 5643 c24 -48 131 -140 201 -173 36 -17 95 -37 133 -45 98 -21
120 -17 29 6 -116 28 -224 88 -308 171 -50 50 -66 62 -55 41z"/>
<path d="M8122 5589 c-1 -19 -14 -59 -28 -88 -24 -48 -44 -67 -120 -118 -11
-8 -1 -6 21 3 81 31 139 118 132 196 -3 40 -4 40 -5 7z"/>
<path d="M7514 5074 c-52 -89 -41 -199 26 -259 19 -17 17 -11 -10 38 -28 51
-32 65 -28 115 2 32 14 78 26 102 29 60 20 63 -14 4z"/>
<path d="M6910 5073 c62 -23 109 -95 110 -165 l0 -38 54 0 c139 0 266 -99 282
-220 l6 -47 37 13 c48 17 97 17 156 -1 27 -8 50 -13 50 -12 1 1 9 23 19 49 48
130 161 211 331 238 l60 9 -80 -3 c-113 -5 -185 -34 -256 -105 -32 -32 -63
-76 -75 -104 -18 -45 -20 -47 -49 -40 -38 10 -101 10 -142 1 -30 -7 -33 -6
-33 18 0 65 -64 150 -144 192 -42 22 -65 26 -127 27 l-76 0 -1 43 c0 23 -9 57
-19 74 -21 36 -77 78 -102 77 -14 0 -14 -1 -1 -6z"/>
<path d="M8452 4604 c17 -30 20 -46 16 -112 -4 -70 -4 -74 8 -47 7 17 13 48
13 70 1 43 -31 125 -48 125 -6 0 -1 -16 11 -36z"/>
<path d="M8176 3907 c-14 -38 -29 -56 -65 -79 -29 -19 -37 -27 -21 -23 61 18
115 82 108 128 -2 17 -8 10 -22 -26z"/>
<path d="M8741 3409 c-12 -28 -50 -79 -84 -112 -51 -51 -54 -57 -21 -32 23 17
53 44 68 62 26 31 71 121 64 128 -2 2 -14 -19 -27 -46z"/>
<path d="M8272 3061 c-29 -10 -59 -24 -65 -30 -6 -6 15 -2 47 9 87 30 195 27
266 -6 99 -46 154 -120 153 -206 0 -27 1 -48 4 -48 2 0 15 7 29 16 54 36 215
3 274 -56 11 -11 20 -16 20 -11 0 5 -19 23 -42 41 -58 42 -137 64 -203 56
l-51 -6 -2 36 c-6 78 -68 155 -162 198 -69 32 -186 35 -268 7z"/>
<path d="M7544 2252 c7 -12 145 -56 152 -49 3 2 -26 14 -63 26 -38 13 -74 25
-82 28 -8 3 -11 1 -7 -5z"/>
<path d="M3454 6261 c-22 -10 -67 -61 -60 -68 2 -2 17 10 34 27 24 24 39 30
73 30 149 0 190 -200 58 -287 -37 -24 -52 -28 -115 -28 -40 0 -66 -3 -56 -7 9
-4 47 -7 83 -7 58 -1 71 3 108 30 100 72 107 215 15 286 -37 27 -104 39 -140
24z"/>
<path d="M1865 5630 c10 -11 20 -20 23 -20 3 0 -3 9 -13 20 -10 11 -20 20 -23
20 -3 0 3 -9 13 -20z"/>
<path d="M1639 4373 c-13 -16 -12 -17 4 -4 16 13 21 21 13 21 -2 0 -10 -8 -17
-17z"/>
<path d="M1705 4226 c-11 -7 -22 -14 -25 -14 -24 -2 -60 -16 -60 -24 0 -5 4
-7 9 -3 5 3 12 1 15 -4 7 -10 -13 -9 -31 2 -18 11 -25 -9 -8 -23 8 -7 12 -17
8 -23 -3 -6 -1 -7 6 -3 6 4 9 12 6 17 -4 5 1 9 9 9 9 0 35 18 58 40 44 41 49
51 13 26z"/>
<path d="M8925 5140 c-4 -6 -11 -7 -17 -4 -7 4 -8 2 -4 -5 6 -9 11 -9 22 0 14
11 18 19 10 19 -3 0 -8 -5 -11 -10z"/>
<path d="M3900 4780 c-8 -5 -10 -10 -5 -10 6 0 17 5 25 10 8 5 11 10 5 10 -5
0 -17 -5 -25 -10z"/>
<path d="M2931 4445 c-1 -55 31 -120 71 -145 18 -11 38 -20 43 -20 6 0 -4 9
-22 20 -43 26 -65 62 -79 129 -12 54 -12 55 -13 16z"/>
<path d="M2455 4309 c-18 -55 1 -127 41 -160 12 -9 10 -2 -6 21 -20 28 -25 47
-25 98 0 34 -1 62 -2 62 -1 0 -5 -9 -8 -21z"/>
<path d="M2194 3771 c-17 -10 -40 -31 -52 -45 -28 -36 -54 -175 -30 -160 4 3
8 21 8 40 0 63 60 149 120 173 21 8 22 10 5 10 -11 1 -34 -8 -51 -18z"/>
<path d="M1579 3656 c-50 -11 -147 -61 -137 -71 2 -2 28 8 57 22 97 48 239 43
371 -13 59 -26 43 -7 -24 28 -38 20 -154 48 -191 47 -11 0 -45 -6 -76 -13z"/>
<path d="M2455 2958 c-114 -41 -200 -174 -166 -258 9 -24 10 -23 10 11 1 63
30 125 77 169 54 50 97 69 178 80 l61 7 -65 1 c-36 0 -78 -4 -95 -10z"/>
<path d="M2305 2914 c-11 -9 -44 -28 -73 -41 -68 -32 -154 -29 -205 6 l-32 22
28 -25 c42 -39 98 -50 160 -32 48 14 147 68 147 81 0 7 -3 6 -25 -11z"/>
<path d="M2284 2645 c-23 -16 -50 -72 -40 -82 3 -3 6 1 6 10 0 9 14 32 31 52
34 38 34 43 3 20z"/>
<path d="M1848 2621 c58 -20 86 -41 113 -86 11 -16 19 -25 19 -18 0 39 -114
123 -165 122 -11 0 4 -8 33 -18z"/>
<path d="M2231 2534 c0 -11 3 -14 6 -6 3 7 2 16 -1 19 -3 4 -6 -2 -5 -13z"/>
<path d="M2200 2260 c20 -13 33 -13 25 0 -3 6 -14 10 -23 10 -15 0 -15 -2 -2
-10z"/>
<path d="M2288 2073 c7 -3 16 -2 19 1 4 3 -2 6 -13 5 -11 0 -14 -3 -6 -6z"/>
<path d="M2006 4530 c12 -14 20 -33 19 -42 -2 -10 2 -21 7 -25 7 -4 8 -1 4 6
-5 8 -3 11 7 9 25 -5 15 14 -23 47 -28 23 -31 24 -14 5z"/>
<path d="M1801 4193 c-7 -8 -11 -16 -8 -19 2 -2 10 2 17 11 17 20 9 27 -9 8z"/>
<path d="M3212 3710 c-6 -11 -12 -22 -12 -25 0 -11 20 6 30 26 14 25 -2 25
-18 -1z"/>
<path d="M3168 3543 c7 -3 16 -2 19 1 4 3 -2 6 -13 5 -11 0 -14 -3 -6 -6z"/>
<path d="M3928 2963 c7 -3 16 -2 19 1 4 3 -2 6 -13 5 -11 0 -14 -3 -6 -6z"/>
<path d="M3170 2859 c-7 -11 -10 -23 -7 -25 2 -2 9 7 15 21 14 30 7 33 -8 4z"/>
<path d="M3440 2840 c-21 -7 -21 -8 -5 -9 11 0 27 4 35 9 18 11 5 11 -30 0z"/>
<path d="M3388 2823 c7 -3 16 -2 19 1 4 3 -2 6 -13 5 -11 0 -14 -3 -6 -6z"/>
<path d="M3328 2798 c-13 -13 -17 -18 -8 -12 8 6 24 16 35 22 11 6 15 12 8 12
-7 0 -22 -10 -35 -22z"/>
<path d="M3990 2732 c0 -12 39 -60 40 -49 0 5 -9 20 -20 34 -11 14 -20 21 -20
15z"/>
<path d="M3338 2653 c6 -2 18 -2 25 0 6 3 1 5 -13 5 -14 0 -19 -2 -12 -5z"/>
<path d="M5886 2570 c8 -31 21 -48 48 -61 17 -8 16 -6 -4 12 -14 11 -30 33
-37 48 -13 26 -13 26 -7 1z"/>
<path d="M6045 2491 c-3 -5 0 -13 6 -17 8 -5 9 -3 4 6 -6 10 -4 12 9 7 10 -4
15 -3 11 3 -8 13 -22 13 -30 1z"/>
<path d="M7405 2461 c-3 -5 -2 -12 3 -15 5 -3 9 1 9 9 0 17 -3 19 -12 6z"/>
<path d="M2094 2387 c1 -9 11 -26 22 -38 l19 -22 -25 7 c-22 6 -23 6 -6 -5 14
-9 21 -8 32 3 12 12 10 18 -15 42 -20 19 -29 23 -27 13z m31 -27 c10 -11 16
-20 13 -20 -3 0 -13 9 -23 20 -10 11 -16 20 -13 20 3 0 13 -9 23 -20z"/>
<path d="M5813 2383 c4 -3 -1 -12 -11 -20 -15 -13 -15 -13 6 -3 19 9 23 30 5
30 -4 0 -3 -3 0 -7z"/>
<path d="M5960 2330 c8 -6 24 -15 35 -21 16 -8 15 -6 -4 10 -13 12 -28 21 -35
21 -6 0 -4 -5 4 -10z"/>
<path d="M6015 2230 c10 -11 20 -20 23 -20 3 0 -3 9 -13 20 -10 11 -20 20 -23
20 -3 0 3 -9 13 -20z"/>
<path d="M6137 2179 c7 -7 15 -10 18 -7 3 3 -2 9 -12 12 -14 6 -15 5 -6 -5z"/>
<path d="M4611 1775 c0 -32 52 -145 96 -210 187 -274 615 -463 1244 -547 225
-30 635 -32 814 -4 245 38 470 110 620 198 106 63 223 182 249 253 9 24 4 19
-53 -58 -107 -141 -363 -275 -647 -337 -178 -39 -298 -50 -544 -50 -409 0
-718 48 -1060 165 -374 128 -593 302 -696 552 -13 32 -24 49 -23 38z"/>
<path d="M2108 1753 c6 -2 18 -2 25 0 6 3 1 5 -13 5 -14 0 -19 -2 -12 -5z"/>
<path d="M5955 1562 c15 -16 119 -40 229 -53 109 -13 352 -7 401 10 25 8 21 9
-25 5 -30 -3 -71 -7 -91 -9 -85 -11 -382 20 -499 51 -17 5 -22 4 -15 -4z"/>
<path d="M7118 2033 c7 -3 16 -2 19 1 4 3 -2 6 -13 5 -11 0 -14 -3 -6 -6z"/>
<path d="M6478 1783 c6 -2 18 -2 25 0 6 3 1 5 -13 5 -14 0 -19 -2 -12 -5z"/>
</g>
</svg>
